<svg width="36" height="36" viewBox="0 0 36 36" fill="none" xmlns="http://www.w3.org/2000/svg">
<rect width="36" height="36" rx="4" fill="#F66464"/>
<circle cx="18" cy="18" r="12" fill="white"/>
<path d="M15.3046 22.7073L15.3047 22.7074L15.3137 22.6984L18 20.0126L20.6822 22.6943C20.8121 22.8296 20.9674 22.938 21.1393 23.0131C21.3133 23.0891 21.5009 23.1295 21.6908 23.132C21.8807 23.1344 22.0692 23.0988 22.2452 23.0272C22.4211 22.9557 22.581 22.8496 22.7153 22.7153C22.8496 22.581 22.9557 22.4211 23.0272 22.2452C23.0988 22.0692 23.1344 21.8807 23.132 21.6908C23.1295 21.5009 23.0891 21.3133 23.0131 21.1393C22.938 20.9674 22.8296 20.8121 22.6943 20.6822L20.0126 18L22.6984 15.3137L22.6985 15.3138L22.7073 15.3046C22.9629 15.0355 23.1033 14.6773 23.0986 14.3062C23.0938 13.9351 22.9443 13.5806 22.6819 13.3181C22.4194 13.0557 22.0649 12.9062 21.6938 12.9014C21.3227 12.8967 20.9645 13.0371 20.6954 13.2927L20.6953 13.2926L20.6863 13.3016L18 15.9874L15.3137 13.3016L15.3138 13.3015L15.3046 13.2927C15.0355 13.0371 14.6773 12.8967 14.3062 12.9014C13.9351 12.9062 13.5806 13.0557 13.3181 13.3181C13.0557 13.5806 12.9062 13.9351 12.9014 14.3062C12.8967 14.6773 13.0371 15.0355 13.2927 15.3046L13.2926 15.3047L13.3016 15.3137L15.9874 18L13.3016 20.6863L13.3015 20.6862L13.2927 20.6954C13.0371 20.9645 12.8967 21.3227 12.9014 21.6938C12.9062 22.0649 13.0557 22.4194 13.3181 22.6819C13.5806 22.9443 13.9351 23.0938 14.3062 23.0986C14.6773 23.1033 15.0355 22.9629 15.3046 22.7073ZM6.5 18C6.5 11.6594 11.6594 6.5 18 6.5C24.3406 6.5 29.5 11.6594 29.5 18C29.5 24.3406 24.3406 29.5 18 29.5C11.6594 29.5 6.5 24.3406 6.5 18Z" fill="#F66464" stroke="white"/>
</svg>
