<svg width="36" height="36" viewBox="0 0 36 36" fill="none" xmlns="http://www.w3.org/2000/svg">
<rect width="36" height="36" rx="4" fill="#EAEAEA"/>
<rect x="12" y="17" width="12" height="2" fill="white"/>
<path d="M6.5 18C6.5 11.6494 11.6494 6.5 18 6.5C24.3506 6.5 29.5 11.6494 29.5 18C29.5 24.3506 24.3506 29.5 18 29.5C11.6494 29.5 6.5 24.3506 6.5 18ZM22.9286 19.3571C23.3226 19.3571 23.6429 19.0369 23.6429 18.6429V17.3571C23.6429 16.9631 23.3226 16.6429 22.9286 16.6429H13.0714C12.6774 16.6429 12.3571 16.9631 12.3571 17.3571V18.6429C12.3571 19.0369 12.6774 19.3571 13.0714 19.3571H22.9286Z" stroke="white"/>
</svg>
