<svg width="126" height="28" viewBox="0 0 126 28" fill="none" xmlns="http://www.w3.org/2000/svg">
<path d="M7.84 17.32C7.70667 17.3733 7.52 17.52 7.28 17.76C7.06667 17.9733 6.82667 18.24 6.56 18.56C6.29333 18.8533 6.04 19.1733 5.8 19.52C5.56 19.8667 5.36 20.2 5.2 20.52C4.96 21 4.76 21.4667 4.6 21.92C4.44 22.3733 4.33333 22.8 4.28 23.2C4.25333 23.5733 4.29333 23.9067 4.4 24.2C4.50667 24.4667 4.72 24.68 5.04 24.84C5.46667 25.0533 5.90667 25.04 6.36 24.8C6.81333 24.5333 7.2 24.0667 7.52 23.4L14.16 9.8C14.5867 8.92 15.0133 8.16 15.44 7.52C15.8667 6.88 16.3333 6.41333 16.84 6.12L18.76 5.8V5.56C17.56 5.50667 16.3867 5.45333 15.24 5.4C14.12 5.32 13.04 5.30667 12 5.36C10.96 5.41333 9.97333 5.58667 9.04 5.88C8.10667 6.17333 7.24 6.65333 6.44 7.32C5.98667 6.84 5.69333 6.29333 5.56 5.68C5.45333 5.06667 5.46667 4.46667 5.6 3.88C5.73333 3.26667 5.98667 2.70667 6.36 2.2C6.76 1.66667 7.25333 1.25333 7.84 0.959998C8.53333 0.613331 9.38667 0.399998 10.4 0.319999C11.44 0.239999 12.5467 0.239999 13.72 0.319999C14.92 0.399998 16.1467 0.533331 17.4 0.719999C18.68 0.879998 19.92 1.01333 21.12 1.12C21.9733 0.666665 22.7467 0.399998 23.44 0.319999C24.16 0.213332 24.8667 0.239999 25.56 0.399998C26.3067 0.559999 26.8533 0.879999 27.2 1.36C27.5733 1.81333 27.72 2.30666 27.64 2.84C27.5867 3.34667 27.2933 3.84 26.76 4.32C26.2533 4.77333 25.52 5.09333 24.56 5.28C24.0533 5.38667 23.6 5.46667 23.2 5.52C22.8267 5.54667 22.3867 5.57333 21.88 5.6L14.08 21.88C13.52 23.0533 12.8533 23.9867 12.08 24.68C11.3333 25.3733 10.5333 25.88 9.68 26.2C8.82667 26.52 7.94667 26.6667 7.04 26.64C6.13333 26.64 5.25333 26.52 4.4 26.28C3.36 25.96 2.50667 25.4933 1.84 24.88C1.2 24.2667 0.733333 23.5867 0.44 22.84C0.173333 22.0933 0.0533333 21.32 0.08 20.52C0.106667 19.72 0.28 18.96 0.6 18.24C1.02667 17.28 1.58667 16.5467 2.28 16.04C2.97333 15.5333 3.68 15.2533 4.4 15.2C5.12 15.12 5.78667 15.2667 6.4 15.64C7.04 15.9867 7.52 16.5467 7.84 17.32ZM27.8113 22.16C26.6913 23.52 25.5846 24.4933 24.4913 25.08C23.3979 25.6667 22.3979 25.9733 21.4913 26C20.7713 26 20.1579 25.8533 19.6513 25.56C19.1446 25.2667 18.7712 24.8667 18.5312 24.36C18.2646 23.8267 18.1579 23.2 18.2113 22.48C18.2379 21.7333 18.4646 20.92 18.8912 20.04L23.4913 10.76C24.4246 10.8133 25.4646 10.7733 26.6113 10.64C27.7846 10.5067 28.8113 10.2933 29.6913 10L24.6513 20.16C23.5046 22.32 23.4246 23.4 24.4113 23.4C24.8113 23.4 25.3713 23.0667 26.0913 22.4C26.8379 21.7067 27.6646 20.6267 28.5713 19.16L29.9313 16.28L32.9313 10.28C33.8113 10.3333 34.7713 10.3333 35.8113 10.28C36.8513 10.2267 37.8779 10.1333 38.8913 10L33.8913 20.08C32.7446 22.4 32.5313 23.56 33.2513 23.56C33.4379 23.56 33.6913 23.48 34.0113 23.32C34.3579 23.16 34.7446 22.88 35.1713 22.48C35.5979 22.08 36.0646 21.56 36.5713 20.92C37.1046 20.2533 37.6513 19.4267 38.2113 18.44L39.1713 19C38.6646 19.7467 38.1179 20.5333 37.5313 21.36C36.9446 22.1867 36.2779 22.9467 35.5313 23.64C34.7846 24.3333 33.9579 24.9067 33.0513 25.36C32.1713 25.8133 31.1713 26.04 30.0513 26.04C29.3846 26.04 28.7713 25.8667 28.2113 25.52C27.6779 25.1733 27.3446 24.6267 27.2113 23.88L27.1713 23.56L27.9713 22.16H27.8113ZM49.7688 24.64C50.0354 24.8 50.4088 24.68 50.8888 24.28C51.3688 23.88 51.9021 23.2667 52.4888 22.44C53.0754 21.6133 53.6888 20.6133 54.3288 19.44C54.9688 18.2667 55.5688 16.9867 56.1288 15.6C56.4754 14.7467 56.7954 13.8533 57.0888 12.92C57.3821 11.96 57.6221 11.0667 57.8088 10.24C58.8488 9.89333 59.6888 9.78667 60.3288 9.92C60.9688 10.0533 61.4354 10.3733 61.7288 10.88C62.0221 11.3867 62.1421 12.0533 62.0888 12.88C62.0354 13.68 61.8221 14.6 61.4488 15.64C61.0221 16.7867 60.4488 17.9333 59.7288 19.08C59.0088 20.2267 58.1688 21.2933 57.2088 22.28C58.2488 22.36 59.3154 22.0667 60.4088 21.4C61.5021 20.7333 62.3954 19.7467 63.0888 18.44L64.0488 19C62.9821 20.76 61.7154 22 60.2488 22.72C58.8088 23.44 57.3554 23.6933 55.8888 23.48C54.9554 24.2533 53.9554 24.88 52.8888 25.36C51.8488 25.84 50.7821 26.08 49.6888 26.08C48.3021 26.08 47.2354 25.76 46.4888 25.12C45.7421 24.4533 45.3021 23.6133 45.1688 22.6C44.3154 23.88 43.4621 24.7733 42.6088 25.28C41.7554 25.76 40.8621 26 39.9288 26C39.2088 26 38.5954 25.8533 38.0888 25.56C37.5821 25.2667 37.2087 24.8533 36.9687 24.32C36.7021 23.7867 36.5954 23.16 36.6488 22.44C36.6754 21.72 36.9021 20.92 37.3287 20.04L41.9288 10.76C42.8621 10.8133 43.8354 10.7733 44.8488 10.64C45.8888 10.5067 46.8488 10.2933 47.7288 10L42.6888 20.16C42.0488 21.3333 41.7821 22.1733 41.8888 22.68C41.9954 23.16 42.2488 23.3467 42.6488 23.24C43.1021 23.16 43.5554 22.7733 44.0088 22.08C44.4888 21.36 45.0888 20.36 45.8088 19.08C45.8088 19.0533 45.8088 19.04 45.8088 19.04C45.8354 19.04 45.8488 19.0267 45.8488 19L49.9288 10.76C50.8621 10.8133 51.8488 10.7733 52.8888 10.64C53.9554 10.5067 54.9288 10.2933 55.8088 10L50.3288 21.08C50.0088 21.7733 49.7688 22.3333 49.6088 22.76C49.4754 23.1867 49.3954 23.5333 49.3688 23.8C49.3688 24.04 49.4088 24.2267 49.4888 24.36C49.5688 24.4667 49.6621 24.56 49.7688 24.64ZM64.2916 16C65.1716 14.6933 66.1049 13.5867 67.0916 12.68C68.1049 11.7733 69.1316 11.0933 70.1716 10.64C71.2382 10.1867 72.3049 9.97333 73.3716 10C74.4649 10.0267 75.5182 10.3067 76.5316 10.84C77.3582 11.2933 78.2782 11.5067 79.2916 11.48C80.3316 11.4533 81.3049 11.2533 82.2116 10.88L77.5316 20.08C76.3582 22.4 76.1449 23.56 76.8916 23.56C77.0782 23.56 77.3316 23.48 77.6516 23.32C77.9982 23.16 78.3849 22.88 78.8116 22.48C79.2382 22.08 79.7049 21.56 80.2116 20.92C80.7449 20.2533 81.2916 19.4267 81.8516 18.44L82.8116 19C82.3049 19.7467 81.7582 20.5333 81.1716 21.36C80.5849 22.1867 79.9182 22.9467 79.1716 23.64C78.4249 24.3333 77.5982 24.9067 76.6916 25.36C75.8116 25.8133 74.8116 26.04 73.6916 26.04C72.9982 26.04 72.3582 25.84 71.7716 25.44C71.1849 25.04 70.8649 24.4133 70.8116 23.56L71.4116 22.2H71.2916L70.8516 22.84C70.0782 23.96 69.3049 24.7733 68.5316 25.28C67.7849 25.76 66.9316 26 65.9716 26C65.0382 26 64.2516 25.7333 63.6116 25.2C62.9982 24.6667 62.5982 23.9467 62.4116 23.04C62.1982 22.1067 62.2382 21.04 62.5316 19.84C62.8249 18.64 63.4116 17.36 64.2916 16ZM67.9316 23.88C68.2516 23.88 68.6249 23.6933 69.0516 23.32C69.4782 22.92 69.9316 22.3867 70.4116 21.72C70.8916 21.0533 71.3982 20.2667 71.9316 19.36C72.4649 18.4267 73.0116 17.4 73.5716 16.28L75.8916 11.6C75.4382 11.44 74.9449 11.48 74.4116 11.72C73.9049 11.96 73.3716 12.3333 72.8116 12.84C72.2516 13.32 71.6782 13.92 71.0916 14.64C70.5316 15.36 69.9982 16.1333 69.4916 16.96C68.1316 19.1733 67.3716 20.8933 67.2116 22.12C67.0782 23.32 67.3182 23.9067 67.9316 23.88ZM80.1216 22.68C80.2282 21.8267 80.5616 20.8667 81.1216 19.8C81.6549 18.7067 82.2282 17.5333 82.8416 16.28L85.6016 10.76C86.5349 10.8133 87.5749 10.7733 88.7216 10.64C89.8949 10.5067 90.9216 10.2933 91.8016 10L86.8016 20.08C85.6549 22.4 85.4416 23.56 86.1616 23.56C86.3482 23.56 86.6016 23.48 86.9216 23.32C87.2682 23.16 87.6549 22.88 88.0816 22.48C88.5082 22.08 88.9749 21.56 89.4816 20.92C90.0149 20.2533 90.5616 19.4267 91.1216 18.44L92.0816 19C91.5749 19.7467 91.0282 20.5333 90.4416 21.36C89.8549 22.1867 89.1882 22.9467 88.4416 23.64C87.6949 24.3333 86.8682 24.9067 85.9616 25.36C85.0816 25.8133 84.0816 26.04 82.9616 26.04C82.5616 26.04 82.1616 25.9733 81.7616 25.84C81.3882 25.7067 81.0682 25.5067 80.8016 25.24C80.5349 24.9467 80.3349 24.6 80.2016 24.2C80.0682 23.7733 80.0416 23.2667 80.1216 22.68ZM94.0416 6.24C93.8016 6.69333 93.4949 7.08 93.1216 7.4C92.7482 7.72 92.3349 7.96 91.8816 8.12C91.4549 8.28 91.0016 8.36 90.5216 8.36C90.0416 8.33333 89.5882 8.21333 89.1616 8C88.2282 7.52 87.6282 6.85333 87.3616 6C87.1216 5.14667 87.2682 4.25333 87.8016 3.32C88.0416 2.89333 88.3482 2.53333 88.7216 2.24C89.0949 1.94667 89.4949 1.73333 89.9216 1.6C90.3749 1.44 90.8282 1.38666 91.2816 1.44C91.7616 1.46667 92.2149 1.57333 92.6416 1.76C93.4949 2.24 94.0549 2.90667 94.3216 3.76C94.5882 4.58666 94.4949 5.41333 94.0416 6.24ZM101.458 9.56C102.018 9.56 102.498 9.65333 102.898 9.84C103.324 10.0267 103.644 10.2533 103.858 10.52C104.098 10.76 104.231 11.0267 104.258 11.32C104.284 11.5867 104.204 11.8133 104.018 12C103.804 12.1867 103.564 12.28 103.298 12.28C103.058 12.2533 102.804 12.16 102.538 12C102.271 11.84 102.018 11.64 101.778 11.4C101.564 11.1333 101.404 10.8667 101.298 10.6C100.231 10.9467 99.6575 11.8533 99.5775 13.32C99.5242 14.2533 99.6175 15.1067 99.8575 15.88C100.124 16.6267 100.404 17.3733 100.698 18.12C100.991 18.84 101.218 19.6 101.378 20.4C101.564 21.1733 101.551 22.0533 101.338 23.04C101.258 23.3333 101.111 23.5733 100.898 23.76C100.684 23.9467 100.511 24.0933 100.378 24.2L100.458 24.36C100.991 23.9867 101.524 23.56 102.058 23.08C102.591 22.5733 103.098 22.0533 103.578 21.52C104.084 20.9867 104.538 20.4533 104.938 19.92C105.338 19.3867 105.658 18.8933 105.898 18.44L106.858 19C106.404 19.7733 105.818 20.5867 105.098 21.44C104.378 22.2933 103.591 23.0933 102.738 23.84C101.911 24.5867 101.071 25.24 100.218 25.8C99.3642 26.36 98.5775 26.72 97.8575 26.88C96.8442 27.2267 95.8042 27.3333 94.7375 27.2C93.6708 27.0933 92.7908 26.8 92.0975 26.32C91.5642 25.92 91.1775 25.5067 90.9375 25.08C90.6708 24.6533 90.5242 24.2533 90.4975 23.88C90.4708 23.5067 90.5508 23.1867 90.7375 22.92C90.8975 22.6267 91.1242 22.44 91.4175 22.36C91.7375 22.28 92.0175 22.32 92.2575 22.48C92.4975 22.64 92.6842 22.88 92.8175 23.2C92.9508 23.52 93.0175 23.9067 93.0175 24.36C93.0442 24.7867 93.0175 25.24 92.9375 25.72C93.5508 25.7733 94.1375 25.5733 94.6975 25.12C95.2842 24.64 95.6708 24 95.8575 23.2C95.9908 22.5867 95.9775 21.9867 95.8175 21.4C95.6575 20.7867 95.4575 20.1867 95.2175 19.6C95.0042 19.0133 94.7908 18.4267 94.5775 17.84C94.3908 17.2533 94.3242 16.68 94.3775 16.12L95.2175 13.92L95.0975 13.88C94.8842 14.28 94.6308 14.7467 94.3375 15.28C94.0442 15.7867 93.7375 16.32 93.4175 16.88C93.0975 17.4133 92.7775 17.9333 92.4575 18.44C92.1642 18.9467 91.8842 19.3867 91.6175 19.76L90.6975 19.24C91.2042 18.3867 91.7242 17.5333 92.2575 16.68C92.8175 15.8267 93.3375 14.9733 93.8175 14.12C94.2175 13.4 94.6575 12.76 95.1375 12.2C95.6175 11.6133 96.1508 11.1333 96.7375 10.76C97.3508 10.36 98.0308 10.0667 98.7775 9.88C99.5508 9.66667 100.444 9.56 101.458 9.56ZM113.944 22.16C112.824 23.52 111.717 24.4933 110.624 25.08C109.531 25.6667 108.531 25.9733 107.624 26C106.904 26 106.291 25.8533 105.784 25.56C105.277 25.2667 104.904 24.8667 104.664 24.36C104.397 23.8267 104.291 23.2 104.344 22.48C104.371 21.7333 104.597 20.92 105.024 20.04L109.624 10.76C110.557 10.8133 111.597 10.7733 112.744 10.64C113.917 10.5067 114.944 10.2933 115.824 10L110.784 20.16C109.637 22.32 109.557 23.4 110.544 23.4C110.944 23.4 111.504 23.0667 112.224 22.4C112.971 21.7067 113.797 20.6267 114.704 19.16L116.064 16.28L119.064 10.28C119.944 10.3333 120.904 10.3333 121.944 10.28C122.984 10.2267 124.011 10.1333 125.024 10L120.024 20.08C118.877 22.4 118.664 23.56 119.384 23.56C119.571 23.56 119.824 23.48 120.144 23.32C120.491 23.16 120.877 22.88 121.304 22.48C121.731 22.08 122.197 21.56 122.704 20.92C123.237 20.2533 123.784 19.4267 124.344 18.44L125.304 19C124.797 19.7467 124.251 20.5333 123.664 21.36C123.077 22.1867 122.411 22.9467 121.664 23.64C120.917 24.3333 120.091 24.9067 119.184 25.36C118.304 25.8133 117.304 26.04 116.184 26.04C115.517 26.04 114.904 25.8667 114.344 25.52C113.811 25.1733 113.477 24.6267 113.344 23.88L113.304 23.56L114.104 22.16H113.944Z" fill="#299ADE"/>
</svg>
